# xmcd
#
# Track frame offsets:
#	150
#	15541
#	32573
#	47591
#	62783
#	80488
#	99000
#	115795
#	134127
#	154549
#	174676
#	194438
#	211545
#	231190
#	245373
#	258786
#	275278
#	292438
#
# Disc length: 4147
#
# Revision: 4
# Processed by: cddbd v1.5.1PL0 Copyright (c) Steve Scherf et al.
# Submitted via: Axialis_AX_CDPlayer 2.6
# Normalized: r2:DSETVAR1,TDELIM( - );r3:TSWAP
#
DISCID=f4103112
DTITLE=Various Artist - New Country 10
DYEAR=2003
DGENRE=Country
TTITLE0=Vince Gill - Next Big Thing
TTITLE1=Jessica Andrews - There's More To Me Than You
TTITLE2=Mark Wills - 19 Somethin'
TTITLE3=Randy Travis - Three Wooden Crosses
TTITLE4=Blake Shelton - The Baby
TTITLE5=Joe Nichols - The Impossible
TTITLE6=Gary Allan - Man To Man
TTITLE7=Darryl Worley - Have You Forgotten?
TTITLE8=Trace Adkins - Then They Do
TTITLE9=Gil Grand - Break It To Them Gently
TTITLE10=Emerson Drive - Only God (Could Stop Me Loving You)
TTITLE11=Jimmy Wayne - Stay Gone
TTITLE12=Doc Walker - Call Me A Fool
TTITLE13=J. R. Vautour - Addicted
TTITLE14=Trick Pony - On A Mission
TTITLE15=Chris Cummings - Benefit Of Doubt
TTITLE16=Jo Dee Messina - Was That My Life
TTITLE17=Craig Young - You Can't Take It With You
EXTD=
EXTT0=
EXTT1=
EXTT2=
EXTT3=
EXTT4=
EXTT5=
EXTT6=
EXTT7=
EXTT8=
EXTT9=
EXTT10=
EXTT11=
EXTT12=
EXTT13=
EXTT14=
EXTT15=
EXTT16=
EXTT17=with Terri Clark
PLAYORDER=
